<svg id="Capa_1" data-name="Capa 1" xmlns="http://www.w3.org/2000/svg" viewBox="0 0 511.9 512.1"><defs><style>.cls-1{fill:#ffa300;}</style></defs><path class="cls-1" d="M498.2,222.7h0L289.3,13.8a47.08,47.08,0,0,0-66.6,0L13.9,222.6l-.2.2a47.26,47.26,0,0,0,.1,66.6,46.66,46.66,0,0,0,31.3,13.7c.5,0,1,.1,1.5.1h8.3V456.9a55.25,55.25,0,0,0,55.2,55.2h81.7a15,15,0,0,0,15-15V376.5A25.22,25.22,0,0,1,232,351.3h48.2a25.22,25.22,0,0,1,25.2,25.2V497a15,15,0,0,0,15,15H402a55.25,55.25,0,0,0,55.2-55.2V303.1h7.7a46.74,46.74,0,0,0,33.3-13.8A47.26,47.26,0,0,0,498.2,222.7Z" transform="translate(-0.02)"/></svg>